HIERARCHY
ROOT Hips
{
	OFFSET 0.000000 0.000000 0.000000
	CHANNELS 6 Xposition Yposition Zposition Xrotation Yrotation Zrotation
	JOINT Spine
	{
		OFFSET 0.000000 0.042231 0.063346
		CHANNELS 3 Xrotation Yrotation Zrotation
		JOINT Spine1
		{
			OFFSET 0.000000 0.014667 0.083179
			CHANNELS 3 Xrotation Yrotation Zrotation
			JOINT Spine2
			{
				OFFSET 0.000000 0.007361 0.084141
				CHANNELS 3 Xrotation Yrotation Zrotation
				JOINT Spine3
				{
					OFFSET 0.000000 0.000000 0.084462
					CHANNELS 3 Xrotation Yrotation Zrotation
					JOINT Neck
					{
						OFFSET 0.000000 -0.031673 0.221713
						CHANNELS 3 Xrotation Yrotation Zrotation
						JOINT Head
						{
							OFFSET 0.000000 -0.020167 0.114371
							CHANNELS 3 Xrotation Yrotation Zrotation
							End Site
							{
								OFFSET 0.000000 0.000000 0.000000
							}
						}
					}
					JOINT RightShoulder
					{
						OFFSET -0.029161 -0.048602 0.157471
						CHANNELS 3 Xrotation Yrotation Zrotation
						JOINT RightArm
						{
							OFFSET -0.144834 0.000000 0.000000
							CHANNELS 3 Xrotation Yrotation Zrotation
							JOINT RightForeArm
							{
								OFFSET -0.274949 0.000000 0.000000
								CHANNELS 3 Xrotation Yrotation Zrotation
								JOINT RightHand
								{
									OFFSET -0.254725 0.000000 0.000000
									CHANNELS 3 Xrotation Yrotation Zrotation
									JOINT RightHandEnd
									{
										OFFSET -0.068160 0.000000 0.000000
										CHANNELS 3 Xrotation Yrotation Zrotation
										End Site
										{
											OFFSET 0.000000 0.000000 0.000000
										}
									}
									JOINT RightHandThumb1
									{
										OFFSET -0.027264 -0.045440 -0.018176
										CHANNELS 3 Xrotation Yrotation Zrotation
										End Site
										{
											OFFSET 0.000000 0.000000 0.000000
										}
									}
								}
							}
						}
					}
					JOINT LeftShoulder
					{
						OFFSET 0.029161 -0.048602 0.157471
						CHANNELS 3 Xrotation Yrotation Zrotation
						JOINT LeftArm
						{
							OFFSET 0.144834 0.000000 0.000000
							CHANNELS 3 Xrotation Yrotation Zrotation
							JOINT LeftForeArm
							{
								OFFSET 0.274949 0.000000 0.000000
								CHANNELS 3 Xrotation Yrotation Zrotation
								JOINT LeftHand
								{
									OFFSET 0.254725 0.000000 0.000000
									CHANNELS 3 Xrotation Yrotation Zrotation
									JOINT LeftHandEnd
									{
										OFFSET 0.068160 0.000000 0.000000
										CHANNELS 3 Xrotation Yrotation Zrotation
										End Site
										{
											OFFSET 0.000000 0.000000 0.000000
										}
									}
									JOINT LeftHandThumb1
									{
										OFFSET 0.027264 -0.045440 -0.018176
										CHANNELS 3 Xrotation Yrotation Zrotation
										End Site
										{
											OFFSET 0.000000 0.000000 0.000000
										}
									}
								}
							}
						}
					}
				}
			}
		}
	}
	JOINT RightUpLeg
	{
		OFFSET -0.086512 0.000000 -0.025273
		CHANNELS 3 Xrotation Yrotation Zrotation
		JOINT RightLeg
		{
			OFFSET 0.000000 0.000000 -0.433119
			CHANNELS 3 Xrotation Yrotation Zrotation
			JOINT RightFoot
			{
				OFFSET 0.000000 0.000000 -0.404688
				CHANNELS 3 Xrotation Yrotation Zrotation
				JOINT RightToeBase
				{
					OFFSET 0.000000 -0.126496 -0.046041
					CHANNELS 3 Xrotation Yrotation Zrotation
					End Site
					{
						OFFSET 0.000000 0.000000 0.000000
					}
				}
			}
		}
	}
	JOINT LeftUpLeg
	{
		OFFSET 0.086512 0.000000 -0.025273
		CHANNELS 3 Xrotation Yrotation Zrotation
		JOINT LeftLeg
		{
			OFFSET 0.000000 0.000000 -0.433119
			CHANNELS 3 Xrotation Yrotation Zrotation
			JOINT LeftFoot
			{
				OFFSET 0.000000 0.000000 -0.404688
				CHANNELS 3 Xrotation Yrotation Zrotation
				JOINT LeftToeBase
				{
					OFFSET 0.000000 -0.126496 -0.046041
					CHANNELS 3 Xrotation Yrotation Zrotation
					End Site
					{
						OFFSET 0.000000 0.000000 0.000000
					}
				}
			}
		}
	}
}
MOTION
Frames: 4
Frame Time: 0.033333
0.228430 -0.566489 0.889671 34.428100 5.459900 -18.832600 0.810200 -0.070300 3.950000 2.791000 0.218400 0.407000 4.187100 3.831700 7.954900 1.591900 0.128400 0.926700 -42.253600 -7.182400 1.747800 13.798900 5.025200 4.067200 -20.773900 6.354500 34.955200 -10.413000 -5.240100 52.526100 0.000000 0.000000 19.099600 -6.973100 15.788300 4.977900 0.000000 0.000000 0.000000 0.000000 0.000000 0.000000 -22.728200 -11.328500 -29.327800 -7.166100 1.552600 -57.160500 0.000000 0.000000 -22.604800 -4.614000 -13.920200 -2.462400 0.000000 0.000000 0.000000 0.000000 0.000000 0.000000 24.767600 17.353500 4.755600 85.524800 0.000000 0.000000 3.192700 -16.439900 -28.246300 -0.275100 0.000000 0.000000 -52.435000 -13.936300 15.668100 24.504000 0.000000 0.000000 -11.912000 -0.773500 13.923100 -1.383300 0.000000 0.000000 
0.229641 -0.564228 0.887209 35.113900 5.194500 -18.988700 0.704900 0.112400 4.025100 2.681100 0.124500 0.425600 4.392200 3.996000 8.173300 1.659200 0.104900 0.981800 -43.150200 -7.087600 1.818000 14.616500 4.994000 3.904600 -21.755900 6.976800 35.540100 -10.154700 -3.986200 52.955900 0.000000 0.000000 16.544100 -7.145100 15.256200 5.182300 0.000000 0.000000 0.000000 0.000000 0.000000 0.000000 -23.639900 -11.755100 -29.811900 -7.188100 0.527200 -57.929400 0.000000 0.000000 -20.538300 -4.852400 -13.002000 -2.178800 0.000000 0.000000 0.000000 0.000000 0.000000 0.000000 25.751000 18.203400 3.646200 83.619600 0.000000 0.000000 2.775500 -16.476200 -28.703500 0.248000 0.000000 0.000000 -53.914300 -13.891900 14.788500 25.597800 0.000000 0.000000 -12.271100 -1.221000 14.487300 -1.296900 0.000000 0.000000 
0.230584 -0.562206 0.885556 35.785200 5.011300 -18.998700 0.510900 0.236100 4.030900 2.502100 0.056700 0.443900 4.721000 4.153800 8.349000 1.745300 0.100300 1.044900 -43.781700 -7.301800 1.598000 15.030000 5.163900 3.998600 -22.439000 7.321300 35.892100 -10.245200 -3.507700 53.380600 0.000000 0.000000 14.575900 -7.598200 14.963500 5.326700 0.000000 0.000000 0.000000 0.000000 0.000000 0.000000 -24.450100 -12.071700 -30.245600 -7.302100 -0.121300 -58.641800 0.000000 0.000000 -18.984000 -4.584500 -12.340600 -1.779200 0.000000 0.000000 0.000000 0.000000 0.000000 0.000000 26.214400 18.705900 2.869600 82.441800 0.000000 0.000000 2.375800 -16.569600 -28.908000 0.571500 0.000000 0.000000 -55.036000 -13.827600 14.260100 26.044800 0.000000 0.000000 -12.428800 -1.454600 14.528400 -1.111200 0.000000 0.000000 
0.231069 -0.560878 0.884789 36.261600 4.963700 -18.691000 0.451900 0.256600 4.068500 2.441700 0.048400 0.447700 4.894900 4.280400 8.374700 1.759800 0.201000 1.009200 -44.062600 -7.736600 1.121400 15.332300 5.441900 4.252700 -22.784300 7.423500 36.101300 -10.238200 -3.339100 53.688200 0.000000 0.000000 12.973900 -8.356300 14.657800 5.491900 0.000000 0.000000 0.000000 0.000000 0.000000 0.000000 -24.937200 -12.392800 -30.659400 -7.478200 -0.469800 -59.267200 0.000000 0.000000 -17.944200 -3.748500 -11.929500 -1.388100 0.000000 0.000000 0.000000 0.000000 0.000000 0.000000 26.472100 18.778200 2.172400 81.937200 0.000000 0.000000 2.447500 -17.069500 -28.401900 0.395900 0.000000 0.000000 -55.553100 -13.698100 14.893000 25.789000 0.000000 0.000000 -12.461600 -1.533000 13.929000 -0.803200 0.000000 0.000000 
